HIERARCHY
ROOT Joint1
{
	OFFSET 0.000000 0.000000 0.000000
	CHANNELS 6 Xposition Yposition Zposition Xrotation Yrotation Zrotation
	JOINT Joint2
	{
		OFFSET -0.000000 0.000000 1.456275
		CHANNELS 6 Xposition Yposition Zposition Xrotation Yrotation Zrotation
		JOINT Joint3
		{
			OFFSET -0.000000 0.000002 1.471446
			CHANNELS 6 Xposition Yposition Zposition Xrotation Yrotation Zrotation
			JOINT Joint4
			{
				OFFSET 0.625745 0.000000 0.917755
				CHANNELS 6 Xposition Yposition Zposition Xrotation Yrotation Zrotation
				JOINT Joint5
				{
					OFFSET -0.629534 0.000001 0.940221
					CHANNELS 6 Xposition Yposition Zposition Xrotation Yrotation Zrotation
					JOINT Joint6
					{
						OFFSET -0.000001 0.113772 1.960660
						CHANNELS 6 Xposition Yposition Zposition Xrotation Yrotation Zrotation
						JOINT Joint7
						{
							OFFSET -0.669733 -0.113771 0.388340
							CHANNELS 6 Xposition Yposition Zposition Xrotation Yrotation Zrotation
							End Site
							{
								OFFSET 0.005509 0.005509 0.438980
							}
						}
					}
				}
			}
		}
	}
}
MOTION
Frames: 24
Frame Time: 0.041667
0.000000 0.000000 0.000000 -0.000000 1.019410 -0.052288 -0.000000 -0.000000 1.456275 -0.000000 -44.977626 -0.000000 -0.000000 0.000002 1.471446 -0.000000 -1.133461 -0.085984 0.625744 0.000000 0.917755 0.000004 134.997637 -0.000001 -0.629534 0.000001 0.940221 -0.000000 1.709736 0.032837 -0.000000 0.113772 1.960661 -88.323423 89.990017 -0.012738 -0.669733 -0.113771 0.388339 -0.705039 3.566197 134.956697 
0.000000 0.000000 0.000000 -0.000000 1.019410 -0.175309 -0.000000 -0.000000 1.456275 -0.000000 -44.965130 0.000000 -0.000000 0.000002 1.471446 -0.000000 -1.133460 -0.246728 0.625745 0.000000 0.917755 0.000004 134.908435 -0.000001 -0.629534 0.000001 0.940221 -0.000000 1.709736 0.161405 -0.000000 0.113772 1.960660 -88.299613 90.042876 0.003133 -0.669733 -0.113771 0.388340 -0.704306 3.566197 134.915415 
0.000000 0.000000 0.000000 -0.000000 1.019410 -0.372697 -0.000000 0.000000 1.456275 -0.000000 -44.945076 -0.000000 -0.000000 0.000002 1.471446 0.000000 -1.133460 -0.504643 0.625745 0.000000 0.917755 0.000004 134.765288 -0.000001 -0.629534 0.000001 0.940221 -0.000000 1.709736 0.367694 -0.000001 0.113772 1.960661 -88.302414 90.127672 0.000947 -0.669733 -0.113771 0.388340 -0.703129 3.566195 134.849162 
0.000000 0.000000 0.000000 -0.000000 1.019410 -0.638194 -0.000000 0.000000 1.456275 -0.000000 -44.918090 0.000000 -0.000000 0.000002 1.471446 0.000000 -1.133463 -0.851553 0.625745 0.000000 0.917755 0.000003 134.572758 -0.000001 -0.629533 0.000001 0.940221 0.000000 1.709737 0.645164 -0.000000 0.113772 1.960660 -88.303103 90.241737 0.000491 -0.669733 -0.113771 0.388340 -0.701547 3.566189 134.760083 
0.000000 0.000000 0.000000 -0.000000 1.019410 -0.965543 -0.000000 0.000000 1.456275 -0.000000 -44.884831 0.000000 -0.000000 0.000002 1.471445 0.000000 -1.133460 -1.279282 0.625745 0.000000 0.917756 0.000004 134.335368 -0.000001 -0.629534 0.000001 0.940221 0.000000 1.709737 0.987275 -0.000000 0.113772 1.960660 -88.303418 90.382377 0.000325 -0.669733 -0.113771 0.388341 -0.699596 3.566179 134.650240 
0.000000 0.000000 0.000000 -0.000000 1.019410 -1.348489 -0.000000 0.000000 1.456275 -0.000000 -44.845912 -0.000000 -0.000001 0.000002 1.471446 -0.000000 -1.133459 -1.779655 0.625744 0.000000 0.917755 0.000004 134.057666 -0.000001 -0.629533 0.000001 0.940221 -0.000000 1.709736 1.387489 -0.000000 0.113772 1.960661 -88.303534 90.546896 0.000216 -0.669733 -0.113771 0.388339 -0.697313 3.566162 134.521750 
0.000000 0.000000 0.000000 -0.000000 1.019410 -1.780774 -0.000000 -0.000000 1.456275 0.000000 -44.801987 -0.000000 -0.000000 0.000002 1.471446 0.000000 -1.133460 -2.344496 0.625744 0.000000 0.917755 0.000004 133.744174 -0.000001 -0.629534 0.000001 0.940221 -0.000000 1.709736 1.839268 -0.000001 0.113772 1.960660 -88.303629 90.732615 0.000164 -0.669733 -0.113771 0.388339 -0.694737 3.566138 134.376691 
0.000000 0.000000 0.000000 -0.000000 1.019410 -2.256140 -0.000000 -0.000000 1.456275 0.000000 -44.753681 0.000000 -0.000000 0.000002 1.471446 -0.000000 -1.133458 -2.965631 0.625744 0.000000 0.917755 0.000003 133.399468 -0.000000 -0.629534 0.000001 0.940221 -0.000000 1.709736 2.336071 -0.000001 0.113772 1.960661 -88.303684 90.936838 0.000133 -0.669733 -0.113771 0.388341 -0.691904 3.566103 134.217151 
0.000000 0.000000 0.000000 -0.000000 1.019410 -2.768331 -0.000000 -0.000000 1.456275 0.000000 -44.701635 0.000000 -0.000000 0.000002 1.471446 0.000000 -1.133459 -3.634883 0.625745 0.000000 0.917754 0.000003 133.028015 -0.000002 -0.629534 0.000001 0.940221 -0.000000 1.709736 2.871361 -0.000001 0.113772 1.960661 -88.303725 91.156886 0.000105 -0.669733 -0.113771 0.388341 -0.688851 3.566058 134.045304 
0.000000 0.000000 0.000000 -0.000000 1.019410 -3.311091 -0.000000 0.000000 1.456275 -0.000000 -44.646477 -0.000000 -0.000000 0.000002 1.471446 0.000000 -1.133460 -4.344076 0.625745 0.000000 0.917755 0.000003 132.634419 -0.000000 -0.629533 0.000001 0.940221 -0.000000 1.709736 3.438596 -0.000000 0.113772 1.960660 -88.303752 91.390069 0.000085 -0.669733 -0.113771 0.388339 -0.685617 3.565998 133.863156 
0.000000 0.000000 0.000000 -0.000000 1.019410 -3.878163 -0.000000 -0.000000 1.456275 -0.000000 -44.588855 0.000000 -0.000000 0.000002 1.471446 0.000000 -1.133465 -5.085034 0.625744 0.000000 0.917755 0.000005 132.223187 0.000000 -0.629534 0.000001 0.940221 -0.000001 1.709737 4.031240 -0.000002 0.113772 1.960660 -88.303766 91.633695 0.000086 -0.669733 -0.113771 0.388340 -0.682237 3.565926 133.672867 
0.000000 0.000000 0.000000 -0.000000 1.019410 -4.470385 -0.000000 0.000000 1.456275 0.000000 -44.528677 -0.000000 -0.000000 0.000002 1.471446 0.000000 -1.133461 -5.858859 0.625745 0.000000 0.917755 0.000004 131.793746 -0.000001 -0.629534 0.000001 0.940221 -0.000001 1.709737 4.650168 -0.000000 0.113772 1.960660 -88.303786 91.888126 0.000064 -0.669733 -0.113771 0.388340 -0.678708 3.565839 133.474122 
0.000000 0.000000 0.000000 -0.000000 1.019410 -5.116993 -0.000000 -0.000000 1.456275 0.000000 -44.462971 0.000000 -0.000000 0.000002 1.471446 0.000000 -1.133460 -6.703744 0.625744 0.000000 0.917755 0.000002 131.324812 -0.000000 -0.629534 0.000001 0.940221 0.000001 1.709737 5.325935 -0.000001 0.113772 1.960660 -88.303786 92.165924 0.000060 -0.669733 -0.113771 0.388340 -0.674857 3.565728 133.257155 
0.000000 0.000000 0.000000 -0.000000 1.019410 -5.854316 -0.000000 -0.000000 1.456275 0.000000 -44.388044 0.000000 -0.000000 0.000002 1.471446 0.000000 -1.133457 -7.667164 0.625745 0.000000 0.917755 0.000003 130.790104 -0.000001 -0.629534 0.000001 0.940221 -0.000001 1.709736 6.096510 -0.000000 0.113772 1.960661 -88.303814 92.482694 0.000048 -0.669733 -0.113771 0.388340 -0.670464 3.565586 133.009724 
0.000000 0.000000 0.000000 -0.000000 1.019410 -6.718686 -0.000000 0.000000 1.456275 -0.000000 -44.300211 -0.000000 -0.000000 0.000002 1.471446 -0.000001 -1.133461 -8.796587 0.625745 0.000000 0.917755 0.000002 130.163284 0.000001 -0.629534 0.000001 0.940221 0.000000 1.709736 6.999857 -0.000001 0.113772 1.960661 -88.303821 92.854045 0.000039 -0.669733 -0.113771 0.388340 -0.665316 3.565393 132.719687 
0.000000 0.000000 0.000000 -0.000000 1.019410 -7.746433 -0.000000 0.000000 1.456275 0.000000 -44.195767 -0.000000 -0.000000 0.000002 1.471446 -0.000000 -1.133460 -10.139483 0.625745 0.000000 0.917755 0.000003 129.417987 0.000002 -0.629534 0.000001 0.940221 0.000000 1.709736 8.073951 -0.000001 0.113772 1.960661 -88.303827 93.295589 0.000023 -0.669733 -0.113771 0.388339 -0.659195 3.565133 132.374803 
0.000000 0.000000 0.000000 -0.000000 1.019410 -8.953200 -0.000000 0.000000 1.456275 -0.000000 -44.073138 -0.000001 -0.000000 0.000002 1.471446 -0.000000 -1.133461 -11.716298 0.625744 0.000001 0.917755 0.000005 128.542876 -0.000003 -0.629534 0.000001 0.940221 -0.000000 1.709737 9.335136 -0.000001 0.113772 1.960661 -88.303841 93.814042 0.000029 -0.669733 -0.113771 0.388340 -0.652012 3.564778 131.969883 
0.000000 0.000000 0.000000 -0.000000 1.019410 -10.271886 -0.000000 0.000000 1.456275 0.000000 -43.939143 0.000001 -0.000000 0.000002 1.471445 0.000000 -1.133464 -13.439351 0.625744 0.000001 0.917755 0.000006 127.586581 0.000001 -0.629534 0.000001 0.940221 0.000001 1.709736 10.713290 -0.000001 0.113772 1.960661 -88.303841 94.380572 0.000042 -0.669733 -0.113771 0.388340 -0.644165 3.564334 131.527382 
0.000000 0.000000 0.000000 -0.000000 1.019410 -11.614703 -0.000000 0.000000 1.456275 0.000001 -43.802690 0.000001 -0.000000 0.000002 1.471446 0.000000 -1.133463 -15.193933 0.625745 0.000000 0.917755 0.000007 126.612801 0.000001 -0.629533 0.000001 0.940221 -0.000001 1.709736 12.116662 -0.000001 0.113772 1.960661 -88.303841 94.957477 0.000028 -0.669733 -0.113771 0.388341 -0.636178 3.563820 131.076781 
0.000000 0.000000 0.000000 -0.000000 1.019410 -12.915085 -0.000000 0.000000 1.456275 0.000000 -43.670549 0.000001 -0.000000 0.000002 1.471446 -0.000000 -1.133463 -16.893068 0.625745 0.000000 0.917755 0.000008 125.669784 0.000002 -0.629533 0.000001 0.940221 -0.000000 1.709737 13.475682 -0.000000 0.113772 1.960660 -88.303841 95.516145 0.000011 -0.669733 -0.113771 0.388340 -0.628446 3.563261 130.640414 
0.000000 0.000000 0.000000 -0.000000 1.019410 -14.191332 -0.000000 -0.000000 1.456275 0.000001 -43.540861 0.000000 -0.000001 0.000002 1.471445 0.000000 -1.133462 -18.560667 0.625744 0.000000 0.917755 0.000004 124.744280 0.000000 -0.629534 0.000001 0.940220 -0.000002 1.709737 14.809486 -0.000001 0.113772 1.960660 -88.303855 96.064452 -0.000002 -0.669733 -0.113771 0.388340 -0.620865 3.562652 130.212147 
0.000000 0.000000 0.000000 -0.000000 1.019410 -15.482973 -0.000000 -0.000000 1.456275 -0.000002 -43.409605 0.000002 -0.000000 0.000002 1.471446 0.000001 -1.133465 -20.248383 0.625744 0.000000 0.917755 0.000010 123.807602 0.000003 -0.629534 0.000001 0.940221 0.000002 1.709736 16.159376 -0.000001 0.113772 1.960660 -88.303862 96.619371 0.000021 -0.669733 -0.113771 0.388340 -0.613195 3.561987 129.778731 
0.000000 0.000000 0.000000 -0.000000 1.019410 -16.811225 -0.000000 0.000000 1.456275 0.000002 -43.274631 0.000001 -0.000000 0.000002 1.471446 0.000001 -1.133464 -21.983930 0.625744 0.000000 0.917755 0.000015 122.844381 0.000000 -0.629533 0.000001 0.940221 -0.000001 1.709735 17.547521 -0.000001 0.113773 1.960660 -88.303848 97.190020 0.000029 -0.669733 -0.113771 0.388340 -0.605317 3.561237 129.333020 
0.000000 0.000000 0.000000 -0.000000 1.019410 -18.124086 -0.000000 0.000000 1.456275 0.000001 -43.141227 -0.000002 -0.000000 0.000002 1.471446 -0.000001 -1.133466 -23.699372 0.625744 0.000000 0.917755 0.000012 121.892321 -0.000002 -0.629534 0.000001 0.940221 -0.000001 1.709736 18.919588 -0.000001 0.113772 1.960660 -88.303882 97.754043 0.000021 -0.669733 -0.113771 0.388339 -0.597528 3.560433 128.892473 
